<?xml version="1.0" encoding="UTF-8" standalone="no"?>
<svg
   width="75mm"
   height="17mm"
   viewBox="0 0 75 17"
   version="1.1"
>
   <g
      aria-label="Varicite"
   >
      <path
         d="M 2.2742044,1.6578102 H 5.508678 L 8.8183718,10.86812 12.119709,1.6578102 h 3.234473 L 10.732311,14.136024 H 6.8960749 Z"
      />
      <path
         d="m 19.605684,9.9236869 q -0.936075,0 -1.41247,0.3175971 -0.468038,0.317597 -0.468038,0.936075 0,0.568331 0.376102,0.894286 0.384459,0.317597 1.061442,0.317597 0.844139,0 1.420828,-0.601763 0.576689,-0.61012 0.576689,-1.521122 V 9.9236869 Z m 4.571724,-1.1283047 v 5.3406418 h -3.017171 v -1.387396 q -0.601762,0.852496 -1.353965,1.245314 -0.752204,0.384459 -1.830361,0.384459 -1.45426,0 -2.365261,-0.844139 -0.902644,-0.852497 -0.902644,-2.206463 0,-1.6464887 1.128304,-2.4154074 1.136663,-0.7689188 3.560429,-0.7689188 h 1.763498 V 7.9094541 q 0,-0.7104141 -0.559973,-1.0363688 -0.559974,-0.3343125 -1.746783,-0.3343125 -0.961149,0 -1.788572,0.1922297 -0.827423,0.1922297 -1.537838,0.576689 V 5.0260087 q 0.961149,-0.2340188 1.930655,-0.3510281 0.969506,-0.1253672 1.939013,-0.1253672 2.532417,0 3.652364,1.0029375 1.128305,0.9945797 1.128305,3.2428313 z"
      />
      <path
         d="m 32.855925,7.3244072 q -0.392817,-0.1838719 -0.785634,-0.26745 -0.38446,-0.091936 -0.777277,-0.091936 -1.153378,0 -1.780214,0.7438453 -0.618478,0.7354876 -0.618478,2.1145266 V 14.136024 H 25.902225 V 4.7752743 h 2.992097 v 1.5378375 q 0.576689,-0.9193594 1.320534,-1.33725 0.752204,-0.4262484 1.79693,-0.4262484 0.150441,0 0.325955,0.016716 0.175514,0.00836 0.509826,0.050147 z"
      />
      <path
         d="m 34.343618,4.7752743 h 2.992097 v 9.3607497 h -2.992097 z m 0,-3.6440063 h 2.992097 v 2.4404813 h -2.992097 z"
      />
      <path
         d="M 47.245455,5.0677977 V 7.508279 Q 46.635335,7.0903884 46.016857,6.8898009 45.406736,6.6892134 44.746469,6.6892134 q -1.253672,0 -1.955728,0.7354875 -0.693698,0.7271297 -0.693698,2.0393063 0,1.3121768 0.693698,2.0476638 0.702056,0.72713 1.955728,0.72713 0.702056,0 1.328892,-0.208945 0.635194,-0.208946 1.170094,-0.618478 v 2.448839 q -0.702056,0.259092 -1.429186,0.384459 -0.718772,0.133725 -1.445901,0.133725 -2.532418,0 -3.961604,-1.295461 -1.429186,-1.303819 -1.429186,-3.6189328 0,-2.3151141 1.429186,-3.6105751 1.429186,-1.3038187 3.961604,-1.3038187 0.735487,0 1.445901,0.133725 0.718772,0.1253672 1.429186,0.3844593 z"
      />
      <path
         d="m 49.298849,4.7752743 h 2.992097 v 9.3607497 h -2.992097 z m 0,-3.6440063 h 2.992097 v 2.4404813 h -2.992097 z"
      />
      <path
         d="m 58.433941,2.1174899 v 2.6577844 h 3.084033 v 2.1396 h -3.084033 v 3.9699607 q 0,0.65191 0.259093,0.885928 0.259092,0.225661 1.02801,0.225661 h 1.537838 v 2.1396 h -2.565848 q -1.771857,0 -2.515702,-0.735487 -0.735488,-0.743845 -0.735488,-2.515702 V 6.9148743 h -1.48769 v -2.1396 h 1.48769 V 2.1174899 Z"
      />
      <path
         d="m 72.163201,9.430576 v 0.852497 h -6.995489 q 0.108651,1.053084 0.760561,1.579626 0.651909,0.526543 1.822003,0.526543 0.944433,0 1.930655,-0.275808 0.994579,-0.284166 2.039306,-0.852497 v 2.306756 q -1.061442,0.401175 -2.122885,0.601763 -1.061442,0.208945 -2.122884,0.208945 -2.540775,0 -3.953245,-1.287103 -1.404113,-1.295461 -1.404113,-3.6272908 0,-2.2900407 1.379039,-3.6022172 1.387397,-1.3121766 3.811163,-1.3121766 2.206462,0 3.526997,1.3288922 1.328892,1.3288922 1.328892,3.5520704 z M 69.087526,8.4359962 q 0,-0.8524968 -0.501469,-1.3706812 -0.493111,-0.5265422 -1.295461,-0.5265422 -0.869212,0 -1.41247,0.4931109 -0.543258,0.4847532 -0.676983,1.4041125 z"
      />
   </g>
</svg>