<?xml version="1.0" encoding="UTF-8" standalone="no"?>
<svg
   width="75mm"
   height="17mm"
   viewBox="0 0 75 17"
   version="1.1"
>
   <g
      aria-label="VARICITE">
      <path
         d="M 2.119371,0.66678642 H 4.7858729 L 7.5143864,8.259771 10.23601,0.66678642 h 2.666502 L 9.0922389,10.953834 H 5.9296437 Z"
      />
      <path
         d="M 19.55154,9.0797031 H 15.403649 L 14.749081,10.953834 H 12.082579 L 15.892852,0.66678642 h 3.162595 L 22.86572,10.953834 H 20.199218 Z M 16.065107,7.1711217 h 2.818085 L 17.477595,3.0783514 Z"
      />
      <path
         d="m 27.998907,5.2280893 q 0.833713,0 1.192002,-0.3100583 0.36518,-0.3100584 0.36518,-1.0197475 0,-0.702799 -0.36518,-1.0059671 Q 28.83262,2.5891482 27.998907,2.5891482 h -1.11621 v 2.6389411 z m -1.11621,1.8327894 V 10.953834 H 24.229976 V 0.66678642 h 4.051429 q 2.032604,0 2.97656,0.68212838 0.950845,0.6821284 0.950845,2.1566281 0,1.0197475 -0.496093,1.6743151 -0.489203,0.6545676 -1.48139,0.964626 0.544325,0.1240233 0.971516,0.5649952 0.434082,0.4340817 0.875054,1.3229157 l 1.440049,2.9214391 H 30.69297 L 29.438956,8.3975747 Q 29.059996,7.6258739 28.667255,7.3433763 28.281405,7.0608787 27.633727,7.0608787 Z"
      />
      <path
         d="m 35.095799,0.66678642 h 2.652722 V 10.953834 h -2.652722 z"
      />
      <path
         d="m 48.504101,10.388838 q -0.730359,0.378961 -1.522731,0.571886 -0.792371,0.192925 -1.653644,0.192925 -2.570039,0 -4.0721,-1.4331587 -1.50206,-1.4400487 -1.50206,-3.899845 0,-2.4666865 1.50206,-3.8998451 1.502061,-1.4400488 4.0721,-1.4400488 0.861273,0 1.653644,0.1929252 0.792372,0.1929252 1.522731,0.5718854 V 3.3746294 Q 47.766852,2.8716458 47.050272,2.6373795 46.333693,2.4031132 45.541322,2.4031132 q -1.419379,0 -2.232421,0.9095045 -0.813041,0.9095045 -0.813041,2.5080276 0,1.5916329 0.813041,2.5011374 0.813042,0.9095045 2.232421,0.9095045 0.792371,0 1.50895,-0.2342663 0.71658,-0.2342664 1.453829,-0.7372499 z"
      />
      <path
         d="m 50.702071,0.66678642 h 2.652721 V 10.953834 h -2.652721 z"
      />
      <path
         d="m 54.725938,0.66678642 h 9.480896 V 2.6718304 H 60.796192 V 10.953834 H 58.14347 V 2.6718304 h -3.417532 z"
      />
      <path
         d="m 65.577979,0.66678642 h 7.158903 V 2.6718304 H 68.2307 V 4.587302 h 4.237465 V 6.5923461 H 68.2307 v 2.3564435 h 4.657766 v 2.0050444 h -7.310487 z"
      />
   </g>
   <g
      aria-label="Cleveland, Lima"
   >
      <path
         d="m 22.928341,15.533025 q -0.20085,0.104215 -0.418752,0.157269 -0.217903,0.05306 -0.454753,0.05306 -0.706763,0 -1.11983,-0.39412 -0.413067,-0.396014 -0.413067,-1.072459 0,-0.67834 0.413067,-1.07246 0.413067,-0.396014 1.11983,-0.396014 0.23685,0 0.454753,0.05306 0.217902,0.05305 0.418752,0.157269 v 0.585494 q -0.202745,-0.138321 -0.399804,-0.202744 -0.19706,-0.06442 -0.414962,-0.06442 -0.39033,0 -0.613917,0.250114 -0.223587,0.250114 -0.223587,0.689709 0,0.4377 0.223587,0.687814 0.223587,0.250114 0.613917,0.250114 0.217902,0 0.414962,-0.06442 0.197059,-0.06442 0.399804,-0.202744 z"
      />
      <path
         d="m 23.502466,12.740083 h 0.67834 v 2.948316 h -0.67834 z"
      />
      <path
         d="m 26.951011,14.621624 v 0.19327 h -1.585952 q 0.02463,0.238746 0.172428,0.358118 0.147794,0.119373 0.413067,0.119373 0.214113,0 0.4377,-0.06253 0.225482,-0.06442 0.462332,-0.19327 v 0.522966 q -0.24064,0.09095 -0.48128,0.136426 -0.24064,0.04737 -0.48128,0.04737 -0.576021,0 -0.896243,-0.2918 -0.318327,-0.293695 -0.318327,-0.822345 0,-0.519177 0.312642,-0.816661 0.314538,-0.297485 0.864031,-0.297485 0.500229,0 0.799608,0.301274 0.301274,0.301274 0.301274,0.805292 z m -0.697288,-0.225481 q 0,-0.193271 -0.113688,-0.310748 -0.111794,-0.119373 -0.293695,-0.119373 -0.19706,0 -0.320222,0.111793 -0.123162,0.109899 -0.153479,0.318328 z"
      />
      <path
         d="m 27.197335,13.566218 h 0.678341 l 0.52865,1.466579 0.526756,-1.466579 h 0.680235 l -0.835609,2.122181 H 28.03105 Z"
      />
      <path
         d="m 32.112458,14.621624 v 0.19327 h -1.585951 q 0.02463,0.238746 0.172427,0.358118 0.147795,0.119373 0.413068,0.119373 0.214113,0 0.437699,-0.06253 0.225482,-0.06442 0.462333,-0.19327 v 0.522966 q -0.24064,0.09095 -0.481281,0.136426 -0.24064,0.04737 -0.48128,0.04737 -0.576021,0 -0.896243,-0.2918 -0.318327,-0.293695 -0.318327,-0.822345 0,-0.519177 0.312643,-0.816661 0.314538,-0.297485 0.864031,-0.297485 0.500228,0 0.799607,0.301274 0.301274,0.301274 0.301274,0.805292 z M 31.41517,14.396143 q 0,-0.193271 -0.113688,-0.310748 -0.111793,-0.119373 -0.293695,-0.119373 -0.197059,0 -0.320222,0.111793 -0.123162,0.109899 -0.153479,0.318328 z"
      />
      <path
         d="m 32.62595,12.740083 h 0.678341 v 2.948316 H 32.62595 Z"
      />
      <path
         d="m 34.907296,14.733418 q -0.212218,0 -0.320222,0.072 -0.106109,0.072 -0.106109,0.212218 0,0.128847 0.08527,0.202745 0.08716,0.072 0.24064,0.072 0.191375,0 0.322117,-0.136426 0.130742,-0.138321 0.130742,-0.344854 v -0.07769 z m 1.036458,-0.255799 v 1.21078 H 35.25973 v -0.314537 q -0.136426,0.19327 -0.306959,0.282326 -0.170532,0.08716 -0.414962,0.08716 -0.329696,0 -0.53623,-0.191376 -0.204639,-0.19327 -0.204639,-0.500228 0,-0.373277 0.255799,-0.547599 0.257693,-0.174322 0.807187,-0.174322 h 0.399804 v -0.05305 q 0,-0.161059 -0.126952,-0.234956 -0.126952,-0.07579 -0.396015,-0.07579 -0.217902,0 -0.405488,0.04358 -0.187585,0.04358 -0.348644,0.130742 v -0.517282 q 0.217903,-0.05305 0.4377,-0.07958 0.219797,-0.02842 0.439595,-0.02842 0.574126,0 0.828029,0.227377 0.255799,0.225482 0.255799,0.735184 z"
      />
      <path
         d="m 38.708274,14.396143 v 1.292256 h -0.68213 v -0.210323 -0.778765 q 0,-0.274746 -0.01326,-0.378961 -0.01137,-0.104214 -0.04169,-0.153479 -0.03979,-0.06632 -0.108004,-0.102319 -0.06821,-0.0379 -0.155374,-0.0379 -0.212218,0 -0.333486,0.164848 -0.121267,0.162953 -0.121267,0.452858 v 1.044037 h -0.67834 v -2.122181 h 0.67834 v 0.310748 q 0.153479,-0.185691 0.325906,-0.272852 0.172428,-0.08906 0.380856,-0.08906 0.367592,0 0.557073,0.225482 0.191375,0.225482 0.191375,0.655603 z"
      />
      <path
         d="m 40.78119,13.876966 v -1.136883 h 0.682129 v 2.948316 H 40.78119 v -0.306958 q -0.140216,0.187586 -0.308853,0.274747 -0.168638,0.08716 -0.39033,0.08716 -0.392225,0 -0.644234,-0.310748 -0.252009,-0.312643 -0.252009,-0.803397 0,-0.490755 0.252009,-0.801503 0.252009,-0.312643 0.644234,-0.312643 0.219797,0 0.388435,0.08906 0.170532,0.08716 0.310748,0.272852 z m -0.447174,1.373733 q 0.217902,0 0.331591,-0.159163 0.115583,-0.159164 0.115583,-0.462332 0,-0.303169 -0.115583,-0.462333 -0.113689,-0.159163 -0.331591,-0.159163 -0.216008,0 -0.331591,0.159163 -0.113688,0.159164 -0.113688,0.462333 0,0.303168 0.113688,0.462332 0.115583,0.159163 0.331591,0.159163 z"
      />
      <path
         d="m 42.185241,14.95511 h 0.682129 v 0.577915 l -0.468016,0.706762 H 41.99576 l 0.189481,-0.706762 z"
      />
      <path
         d="m 44.970603,12.859456 h 0.7295 v 2.277555 h 1.280888 v 0.551388 h -2.010388 z"
      />
      <path
         d="m 47.413005,13.566218 h 0.678341 v 2.122181 h -0.678341 z m 0,-0.826135 h 0.678341 v 0.553283 h -0.678341 z"
      />
      <path
         d="m 50.709967,13.918652 q 0.128847,-0.19706 0.305064,-0.299379 0.178111,-0.104215 0.390329,-0.104215 0.365698,0 0.557073,0.225482 0.191375,0.225482 0.191375,0.655603 v 1.292256 h -0.682129 v -1.106566 q 0.0019,-0.02463 0.0019,-0.05116 0.0019,-0.02653 0.0019,-0.07579 0,-0.225481 -0.06632,-0.325906 -0.06632,-0.102319 -0.214113,-0.102319 -0.19327,0 -0.299379,0.159163 -0.104214,0.159164 -0.108004,0.460438 v 1.042142 h -0.68213 v -1.106566 q 0,-0.352433 -0.06063,-0.452858 -0.06063,-0.102319 -0.216008,-0.102319 -0.195165,0 -0.301274,0.161058 -0.106109,0.159164 -0.106109,0.456648 v 1.044037 h -0.68213 v -2.122181 h 0.68213 v 0.310748 q 0.125057,-0.180006 0.286115,-0.270957 0.162954,-0.09095 0.358119,-0.09095 0.219797,0 0.388434,0.106109 0.168638,0.10611 0.255799,0.297485 z"
      />
      <path
         d="m 53.737862,14.733418 q -0.212218,0 -0.320222,0.072 -0.106109,0.072 -0.106109,0.212218 0,0.128847 0.08527,0.202745 0.08716,0.072 0.240641,0.072 0.191375,0 0.322116,-0.136426 0.130742,-0.138321 0.130742,-0.344854 v -0.07769 z m 1.036458,-0.255799 v 1.21078 h -0.684024 v -0.314537 q -0.136426,0.19327 -0.306958,0.282326 -0.170533,0.08716 -0.414963,0.08716 -0.329696,0 -0.536229,-0.191376 -0.204639,-0.19327 -0.204639,-0.500228 0,-0.373277 0.255798,-0.547599 0.257694,-0.174322 0.807187,-0.174322 h 0.399804 v -0.05305 q 0,-0.161059 -0.126952,-0.234956 -0.126952,-0.07579 -0.396014,-0.07579 -0.217903,0 -0.405488,0.04358 -0.187586,0.04358 -0.348644,0.130742 v -0.517282 q 0.217902,-0.05305 0.437699,-0.07958 0.219798,-0.02842 0.439595,-0.02842 0.574126,0 0.82803,0.227377 0.255798,0.225482 0.255798,0.735184 z"
      />
   </g>
</svg>